<svg xmlns="http://www.w3.org/2000/svg" xmlns:xlink="http://www.w3.org/1999/xlink" contentStyleType="text/css" data-diagram-type="CLASS" height="345px" preserveAspectRatio="none" style="width:670px;height:345px;background:#FFFFFF;" version="1.1" viewBox="0 0 670 345" width="670px" zoomAndPan="magnify"><title>Context Diagram</title><defs/><g><g class="title" data-source-line="9"><text fill="#000000" font-family="sans-serif" font-size="14" font-weight="bold" lengthAdjust="spacing" textLength="133.4717" x="261.3173" y="22.9951">Context Diagram</text></g><!--entity Passenger--><g class="entity" data-entity="Passenger" data-source-line="11" data-uid="ent0002" id="entity_Passenger"><rect fill="#F1F1F1" height="52.5938" rx="2.5" ry="2.5" style="stroke:#181818;stroke-width:0.5;" width="92.3516" x="160.66" y="44.2969"/><text fill="#000000" font-family="sans-serif" font-size="14" lengthAdjust="spacing" textLength="72.3516" x="170.66" y="67.292">Passenger</text><text fill="#000000" font-family="sans-serif" font-size="14" lengthAdjust="spacing" textLength="42.834" x="170.66" y="83.5889">(User)</text></g><!--entity Driver--><g class="entity" data-entity="Driver" data-source-line="12" data-uid="ent0003" id="entity_Driver"><rect fill="#F1F1F1" height="52.5938" rx="2.5" ry="2.5" style="stroke:#181818;stroke-width:0.5;" width="63.0801" x="313.3" y="44.2969"/><text fill="#000000" font-family="sans-serif" font-size="14" lengthAdjust="spacing" textLength="43.0801" x="323.3" y="67.292">Driver</text><text fill="#000000" font-family="sans-serif" font-size="14" lengthAdjust="spacing" textLength="42.834" x="323.3" y="83.5889">(User)</text></g><!--entity Admin--><g class="entity" data-entity="Admin" data-source-line="13" data-uid="ent0004" id="entity_Admin"><rect fill="#F1F1F1" height="36.2969" rx="2.5" ry="2.5" style="stroke:#181818;stroke-width:0.5;" width="64.8643" x="429.41" y="52.4369"/><text fill="#000000" font-family="sans-serif" font-size="14" lengthAdjust="spacing" textLength="44.8643" x="439.41" y="75.432">Admin</text></g><!--entity App--><g class="entity" data-entity="App" data-source-line="15" data-uid="ent0005" id="entity_App"><rect fill="#F1F1F1" height="36.2969" rx="2.5" ry="2.5" style="stroke:#181818;stroke-width:0.5;" width="146.1299" x="271.77" y="173.8869"/><text fill="#000000" font-family="sans-serif" font-size="14" lengthAdjust="spacing" textLength="126.1299" x="281.77" y="196.882">HamSafar System</text></g><!--entity Yandex--><g class="entity" data-entity="Yandex" data-source-line="17" data-uid="ent0006" id="entity_Yandex"><rect fill="#F1F1F1" height="36.2969" rx="2.5" ry="2.5" style="stroke:#181818;stroke-width:0.5;" width="139.6768" x="7" y="295.3269"/><text fill="#000000" font-family="sans-serif" font-size="14" lengthAdjust="spacing" textLength="119.6768" x="17" y="318.322">Yandex Maps API</text></g><!--entity Telegram--><g class="entity" data-entity="Telegram" data-source-line="18" data-uid="ent0007" id="entity_Telegram"><rect fill="#F1F1F1" height="36.2969" rx="2.5" ry="2.5" style="stroke:#181818;stroke-width:0.5;" width="152.8223" x="181.43" y="295.3269"/><text fill="#000000" font-family="sans-serif" font-size="14" lengthAdjust="spacing" textLength="132.8223" x="191.43" y="318.322">Telegram Gateway</text></g><!--entity Mongo--><g class="entity" data-entity="Mongo" data-source-line="19" data-uid="ent0008" id="entity_Mongo"><rect fill="#F1F1F1" height="36.2969" rx="2.5" ry="2.5" style="stroke:#181818;stroke-width:0.5;" width="126.6338" x="369.52" y="295.3269"/><text fill="#000000" font-family="sans-serif" font-size="14" lengthAdjust="spacing" textLength="106.6338" x="379.52" y="318.322">MongoDB Atlas</text></g><!--entity Server--><g class="entity" data-entity="Server" data-source-line="20" data-uid="ent0009" id="entity_Server"><rect fill="#F1F1F1" height="52.5938" rx="2.5" ry="2.5" style="stroke:#181818;stroke-width:0.5;" width="132.5264" x="531.58" y="287.1869"/><text fill="#000000" font-family="sans-serif" font-size="14" lengthAdjust="spacing" textLength="89.749" x="541.58" y="310.182">Timeweb VM</text><text fill="#000000" font-family="sans-serif" font-size="14" lengthAdjust="spacing" textLength="112.5264" x="541.58" y="326.4789">(Ubuntu Server)</text></g><!--link Passenger to App--><g class="link" data-entity-1="Passenger" data-entity-2="App" data-source-line="22" data-uid="lnk10" id="link_Passenger_App"><path codeLine="22" d="M211.5,97.0469 C215.44,112.2769 222.5,131.1069 234.84,143.8869 C247.32,156.8169 258.4072,164.0519 274.9172,171.0619" fill="none" id="Passenger-to-App" style="stroke:#000000;stroke-width:1;"/><polygon fill="#000000" points="280.44,173.4069,273.7191,166.2076,275.8377,171.4528,270.5925,173.5713,280.44,173.4069" style="stroke:#000000;stroke-width:1;"/><text fill="#000000" font-family="sans-serif" font-size="13" lengthAdjust="spacing" textLength="96.2749" x="235.84" y="139.9538">Requests rides</text></g><!--link Driver to App--><g class="link" data-entity-1="Driver" data-entity-2="App" data-source-line="23" data-uid="lnk11" id="link_Driver_App"><path codeLine="23" d="M342.85,97.3469 C342.02,111.1469 341.35,128.4469 341.84,143.8869 C342.15,153.7269 342.4059,158.7119 343.0359,167.6019" fill="none" id="Driver-to-App" style="stroke:#000000;stroke-width:1;"/><polygon fill="#000000" points="343.46,173.5869,346.8138,164.3266,343.1066,168.5994,338.8338,164.8921,343.46,173.5869" style="stroke:#000000;stroke-width:1;"/><text fill="#000000" font-family="sans-serif" font-size="13" lengthAdjust="spacing" textLength="75.6133" x="342.84" y="139.9538">Offers rides</text></g><!--link Admin to App--><g class="link" data-entity-1="Admin" data-entity-2="App" data-source-line="24" data-uid="lnk12" id="link_Admin_App"><path codeLine="24" d="M455.53,88.9969 C449.16,104.7469 438.08,127.8769 422.84,143.8869 C411.49,155.8069 401.7305,162.895 387.9205,170.595" fill="none" id="Admin-to-App" style="stroke:#000000;stroke-width:1;"/><polygon fill="#000000" points="382.68,173.5169,392.4886,172.6277,387.0471,171.082,388.5928,165.6404,382.68,173.5169" style="stroke:#000000;stroke-width:1;"/><text fill="#000000" font-family="sans-serif" font-size="13" lengthAdjust="spacing" textLength="109.5415" x="435.84" y="139.9538">Manages system</text></g><!--link App to Yandex--><g class="link" data-entity-1="App" data-entity-2="Yandex" data-source-line="26" data-uid="lnk13" id="link_App_Yandex"><path codeLine="26" d="M271.44,210.6469 C244.82,218.2169 214.9,228.1269 188.84,240.1869 C156.07,255.3469 126.4866,275.3262 104.5966,291.3962" fill="none" id="App-to-Yandex" style="stroke:#000000;stroke-width:1;"/><polygon fill="#000000" points="99.76,294.9469,109.382,292.8453,103.7905,291.988,104.6478,286.3965,99.76,294.9469" style="stroke:#000000;stroke-width:1;"/><text fill="#000000" font-family="sans-serif" font-size="13" lengthAdjust="spacing" textLength="99.3472" x="189.84" y="253.2538">Maps &amp; routing</text></g><!--link App to Telegram--><g class="link" data-entity-1="App" data-entity-2="Telegram" data-source-line="27" data-uid="lnk14" id="link_App_Telegram"><path codeLine="27" d="M332,210.6569 C315.46,233.3769 290.4132,267.7675 273.9832,290.3175" fill="none" id="App-to-Telegram" style="stroke:#000000;stroke-width:1;"/><polygon fill="#000000" points="270.45,295.1669,278.9828,290.2484,273.3944,291.1258,272.517,285.5374,270.45,295.1669" style="stroke:#000000;stroke-width:1;"/><text fill="#000000" font-family="sans-serif" font-size="13" lengthAdjust="spacing" textLength="74.0518" x="309.84" y="253.2538">Verification</text></g><!--link App to Mongo--><g class="link" data-entity-1="App" data-entity-2="Mongo" data-source-line="28" data-uid="lnk15" id="link_App_Mongo"><path codeLine="28" d="M365.32,210.6769 C374.38,219.0669 384.78,229.5769 392.84,240.1869 C406.03,257.5469 415.0711,274.3641 422.3411,289.5641" fill="none" id="App-to-Mongo" style="stroke:#000000;stroke-width:1;"/><polygon fill="#000000" points="424.93,294.9769,424.6552,285.1319,422.7726,290.4663,417.4382,288.5837,424.93,294.9769" style="stroke:#000000;stroke-width:1;"/><text fill="#000000" font-family="sans-serif" font-size="13" lengthAdjust="spacing" textLength="84.5571" x="404.84" y="253.2538">Data storage</text></g><!--link App to Server--><g class="link" data-entity-1="App" data-entity-2="Server" data-source-line="29" data-uid="lnk16" id="link_App_Server"><path codeLine="29" d="M418.33,210.4069 C444.18,217.8769 472.96,227.7869 497.84,240.1869 C523.15,252.7969 544.2596,267.8727 563.3096,283.1527" fill="none" id="App-to-Server" style="stroke:#000000;stroke-width:1;"/><polygon fill="#000000" points="567.99,286.9069,563.4722,278.1554,564.0897,283.7784,558.4666,284.3959,567.99,286.9069" style="stroke:#000000;stroke-width:1;"/><text fill="#000000" font-family="sans-serif" font-size="13" lengthAdjust="spacing" textLength="79.5171" x="527.84" y="253.2538">Deployment</text></g><!--SRC=[NP91JiCm44NtFiMe2mGBBj05Kjj8m2AYeb24n6RQJ89LnmxZITCASNSScqGfMLd_FMKyNqPZN5VhaxQLKlwWROECDUmDUW_V2iAtnFsXOjVQOkMCOtZxr4A9E2w8KxeqGOlfWjbrq_17AT5Y25RE2fq4CerLcA8KqrxGLW7Drc4WsOhumrw_UkAR6Q27CPsg6UlZFoz5KsbHrDf65ayNinwmtc2939kp5wgJrJGNpZlQWawGOnFO-Z4wAPjQBsIeNmNkKQZ3SzI6S2hcpbOkMy92GhFHYid5ltHD7UrWc_UhxLehBMo8ZyEEwQpKs0dStjxrzuOvFDDNIruyi2x8grJ7X3-L9V50Oo4JcAF5YZpus8PIVThJlmhcgOGh26z0-dSoy77vEMo9TQdtADhPaSSD0ynG4Bmu3bD6cBRfAJN6dMkoyWi0]--></g></svg>